Coordinates
version=1
nRows=35
nColumns=18
inDegrees=yes

Units are S.I. units (second, meters, Newtons, ...)
If the header above contains a line with 'inDegrees', this indicates whether rotational values are in degrees (yes) or radians (no).

endheader
time	TH_x	TH_y	TH_z	TH_transx	TH_transy	TH_transz	SC_y	SC_z	SC_x	AC_y	AC_z	AC_x	GH_y	GH_z	GH_yy	EL_x	PS_y
  22835.00000000	    157.75118543	    105.54967380	   -173.78211395	     -0.07695939	      0.19100702	      1.43107350	    -41.98515155	     14.03385713	      8.63418572	     60.95485286	      5.65646934	     14.61706009	     83.90530775	      6.99464121	    -24.53386334	     13.27052034	    160.02711218
  22868.00000000	    159.69000079	    104.65948006	   -176.98970724	     -0.08820581	      0.19781128	      1.43568351	    -45.49309145	     14.51808192	      8.91438812	     53.03249411	      6.91317486	     11.80294465	     75.98061870	      4.03897417	    -31.98848561	     28.81232508	    160.02711218
  22901.00000000	    158.69286588	    105.89734652	   -175.54652197	     -0.08060901	      0.20453103	      1.43575668	    -43.22196367	     13.62550194	      8.46296135	     51.23552792	      6.10474021	     11.71153196	     75.03539826	      4.00519049	    -32.99548979	     29.72034978	    160.02711218
  22935.00000000	    154.99718141	    105.24928383	   -170.69225569	     -0.08390038	      0.20599142	      1.44389942	    -42.93918569	     13.24640129	      8.61692667	     49.30385629	      7.26827904	      9.83994704	     72.13421391	      2.29868911	    -35.73900659	     40.02658170	    160.02711218
  22968.00000000	    158.31827377	    105.89240282	   -173.57973203	     -0.08574449	      0.21080268	      1.45076956	    -42.76448402	     12.49051315	      9.06781869	     46.38338405	     10.08912524	      6.06453719	     71.36308859	      1.01797192	    -36.36926941	     52.75755817	    159.81037517
  23001.00000000	    153.27627588	    107.53382499	   -169.26068229	     -0.08834012	      0.20945234	      1.44553844	    -42.33949432	     11.81131735	      9.31712075	     45.50016021	     11.58552170	      4.21625431	     69.87281086	     -0.29291814	    -37.86586334	     60.94740058	    159.98408446
  23035.00000000	    154.14389013	    107.75282881	   -170.21047661	     -0.09323490	      0.20666838	      1.44091680	    -42.99249155	     12.35219922	      8.96493980	     43.90972837	     12.48291004	      2.35279858	     68.81837406	     -1.49938638	    -38.92771684	     68.28987220	    159.82965741
  23068.00000000	    157.13326221	    100.78879524	   -171.53843715	     -0.08840480	      0.20628989	      1.45516438	    -45.41299876	     13.96159708	      7.88483650	     43.98149774	     13.40729274	     -0.02372422	     67.35188229	     -4.09472322	    -40.56356781	     72.24503513	    159.99593696
  23101.00000000	    166.43127006	     96.70798533	   -180.71689365	     -0.08732902	      0.20939903	      1.45511663	    -47.80608816	     14.66218993	      6.86363139	     40.68960955	     13.07362213	     -1.84794373	     69.36809128	     -3.01220045	    -38.28720391	     71.55729458	    160.02711218
  23135.00000000	    166.43939355	     96.64969432	   -180.61225599	     -0.08850482	      0.21059848	      1.45543236	    -47.67487621	     14.41175786	      6.67743266	     40.70012952	     12.95899667	     -2.04411183	     69.42878438	     -3.18448795	    -38.22383240	     71.67404033	    160.02711218
  23168.00000000	    166.54355348	     97.72290683	   -180.84041605	     -0.08795828	      0.21699753	      1.44056060	    -48.43474508	     13.37059844	      5.98614629	     40.48134769	     12.38504790	     -2.65765373	     69.55788954	     -3.55997323	    -38.06053106	     72.87824381	    160.02711218
  23201.00000000	    165.66173359	     99.18397353	   -182.03372676	     -0.09255073	      0.21106144	      1.42635992	    -50.55750523	     14.29762489	      6.52499794	     42.67227494	     13.81313208	     -2.74186659	     71.64654115	     -2.39383397	    -36.06063978	     74.72985497	    160.02711218
  23235.00000000	    151.18211601	    100.99540447	   -167.22363316	     -0.09756453	      0.20311060	      1.42571601	    -50.66195800	     14.05058053	      6.53841016	     43.52013789	     13.63105505	     -2.32836182	     71.61696355	     -2.43875733	    -36.08987487	     73.28719812	    160.02711218
  23268.00000000	    151.18248073	    100.99671002	   -167.22303516	     -0.09748647	      0.20309393	      1.42570083	    -50.66296246	     14.05207564	      6.53772299	     43.51968306	     13.63193187	     -2.33025707	     71.61700877	     -2.44010130	    -36.08988630	     73.28658458	    160.02711218
  23301.00000000	    150.57991099	    101.71066827	   -167.28677256	     -0.10044208	      0.19136706	      1.42550000	    -52.23794760	     16.09803969	      7.02910226	     42.67308700	     17.41216081	     -5.75456061	     70.29738831	     -4.52247882	    -37.73823336	     77.66342641	    160.02711218
  23335.00000000	    151.49327511	     99.35386549	   -167.85633284	     -0.09883974	      0.19224461	      1.43178072	    -52.93552310	     16.91587624	      6.46979988	     41.80522554	     18.92188773	     -8.36600156	     69.24336098	     -6.73078957	    -39.07288010	     76.95753232	    160.02711218
  23368.00000000	    151.45291755	     99.42014730	   -167.89123450	     -0.09875790	      0.19175899	      1.43188437	    -53.00182677	     16.94966225	      6.38222720	     41.79568616	     18.89432390	     -8.45747666	     69.26735991	     -6.81945271	    -39.05005945	     76.93186457	    160.02711218
  23401.00000000	    151.49483854	    100.20424995	   -168.27865651	     -0.09978438	      0.18955561	      1.43490887	    -53.77636257	     17.13549230	      6.63368544	     41.07228377	     19.41858516	     -8.85477222	     68.76198103	     -6.79714514	    -39.59312439	     77.22892621	    160.02711218
  23435.00000000	    166.40685358	     99.38802729	   -183.26118403	     -0.09779711	      0.19290700	      1.43490028	    -54.41830943	     17.05764427	      9.61665092	     34.68464633	     19.99999998	    -16.62429375	     73.19509507	     -3.01456617	    -36.53215163	     79.13049895	    160.02711218
  23468.00000000	    166.41007076	     99.88449431	   -183.04398614	     -0.09581695	      0.19248688	      1.43392201	    -54.76571954	     16.72926596	      9.39089120	     34.51911930	     19.89698127	    -16.97638446	     73.06736199	     -3.50071431	    -36.72377668	     76.88678006	    160.02711218
  23501.00000000	    164.78473270	    103.87774738	   -180.87151788	     -0.09323247	      0.18844250	      1.42743061	    -53.59076101	     16.59157513	     11.83615144	     39.37368268	     19.99999998	    -17.00000001	     74.97886545	     -6.36876222	    -36.92389337	     77.25216623	    160.02711218
  23535.00000000	    164.27814300	    104.30739704	   -180.76708958	     -0.08986345	      0.18671025	      1.42776342	    -53.31652223	     16.92447235	     11.88150992	     37.55147692	     19.07394397	    -16.66560496	     73.13229263	     -8.37923047	    -38.96128815	     72.33961480	    160.02711218
  23568.00000000	    161.37918294	    107.16796139	   -177.29606256	     -0.08912817	      0.18264479	      1.41939833	    -52.41106900	     16.44490159	     12.73605321	     40.37556469	     19.99999998	    -17.00000001	     73.25441812	    -12.89820992	    -43.34643236	     78.86670242	    160.02711218
  23601.00000000	    160.86607080	    109.37559414	   -175.86123141	     -0.08871668	      0.18075538	      1.41301020	    -52.92385063	     16.15049538	     14.42231969	     44.27991779	     19.99999998	    -17.00000001	     74.59974120	    -16.49459679	    -47.02901607	     79.24544637	    160.02711218
  23635.00000000	    160.71369416	    110.10808931	   -175.43366594	     -0.08988111	      0.18022656	      1.41307233	    -52.30394347	     16.65717363	     14.03952663	     43.85391616	     18.76899020	    -16.71287479	     74.60471223	    -18.31125762	    -47.75726210	     72.81072312	    160.02711218
  23668.00000000	    160.72031329	    110.41502851	   -175.38219905	     -0.08969877	      0.18120028	      1.41305788	    -51.98332724	     16.62051255	     13.36613537	     43.63171373	     18.66834215	    -17.00000001	     74.87354574	    -19.13231864	    -47.53195576	     72.69651543	    160.02711218
  23701.00000000	    160.48117135	    110.80771362	   -175.09730278	     -0.09015809	      0.17968182	      1.41256978	    -52.04109179	     16.67368990	     12.70918736	     43.57397942	     18.88575247	    -17.00000001	     75.10778463	    -20.11912767	    -47.52055042	     71.61408140	    160.02711218
  23735.00000000	    160.45879517	    111.54187353	   -174.76510472	     -0.09299713	      0.17712066	      1.41016636	    -52.56607263	     16.49828002	     12.00935151	     43.40396947	     19.42099207	    -16.71829833	     75.19847961	    -21.35824577	    -47.81562456	     67.80819230	    160.02711218
  23768.00000000	    162.86804867	    111.24738940	   -176.80459955	     -0.09170919	      0.17892224	      1.41104053	    -52.83240185	     16.81344467	     11.37569444	     42.65253801	     19.50207200	    -17.00000001	     75.02156135	    -22.39893748	    -48.03398820	     64.82519718	    160.02711218
  23801.00000000	    163.97892720	    111.11329789	   -178.24215559	     -0.08949618	      0.17987094	      1.41154865	    -52.48375859	     17.12176079	     10.64920605	     41.89352172	     19.54149208	    -17.00000001	     74.78438253	    -23.74084366	    -48.35227111	     65.96979171	    160.02711218
  23835.00000000	    164.02720431	    111.37464091	   -177.96404932	     -0.08896667	      0.18047970	      1.41178490	    -52.26973225	     17.09114985	     10.12243846	     41.26332969	     18.76107561	    -16.71441731	     74.65676997	    -24.22063345	    -48.07389901	     64.84434214	    160.02711218
  23868.00000000	    164.02662205	    111.37553741	   -177.96440680	     -0.08893174	      0.18045578	      1.41180812	    -52.27021353	     17.09110767	     10.12187997	     41.26324290	     18.76110281	    -16.71527005	     74.65704042	    -24.22114929	    -48.07373187	     64.84379509	    160.02711218
  23901.00000000	    164.12754356	    112.39397256	   -178.29426957	     -0.08791035	      0.17966389	      1.40998714	    -51.95960168	     17.09097739	      9.63483696	     40.62229085	     18.08338186	    -16.89218986	     74.89388416	    -24.34400497	    -47.38175196	     64.42833806	    160.02711218
  23935.00000000	    164.17365582	    113.02368973	   -177.85843300	     -0.08899049	      0.17910679	      1.40972425	    -52.06541127	     17.02926415	      8.91760123	     40.87557811	     18.70527426	    -17.00000001	     75.52225547	    -25.21480302	    -47.26723648	     65.26587609	    160.02711218
  23968.00000000	    164.04799334	    113.11612022	   -177.87088798	     -0.08798220	      0.17864274	      1.41001724	    -51.82168429	     16.98896995	      8.37622841	     40.76339975	     18.02191430	    -16.79031716	     75.82602770	    -25.49052725	    -46.67969038	     64.40123734	    160.02711218
